
<svg xmlns="http://www.w3.org/2000/svg" viewBox="0 0 32 32" fill="#ffffff">
  <path d="M16.001 2.5c-7.449 0-13.5 6.051-13.5 13.5 0 2.372.618 4.699 1.79 6.757L2.5 29.5l6.936-1.774a13.43 13.43 0 0 0 6.565 1.274h.001c7.449 0 13.5-6.051 13.5-13.5s-6.051-13.5-13.5-13.5zm0 24.502a11.46 11.46 0 0 1-5.798-1.558l-.416-.247-4.117 1.053 1.097-4.014-.27-.413a11.438 11.438 0 0 1-1.778-6.1c0-6.322 5.147-11.469 11.469-11.469s11.469 5.147 11.469 11.469c0 6.322-5.147 11.469-11.469 11.469zm6.306-8.553c-.346-.173-2.046-1.01-2.364-1.125-.318-.115-.55-.173-.782.173-.231.346-.897 1.124-1.1 1.354-.202.231-.404.26-.75.087-.346-.173-1.461-.538-2.783-1.717-1.029-.918-1.722-2.054-1.923-2.4-.202-.346-.021-.532.152-.704.155-.154.346-.404.519-.606.173-.202.231-.346.346-.577.115-.231.058-.433-.029-.606-.087-.173-.782-1.89-1.072-2.589-.282-.678-.568-.587-.782-.597-.202-.009-.433-.011-.664-.011s-.606.087-.923.433c-.318.346-1.214 1.187-1.214 2.894 0 1.707 1.244 3.354 1.417 3.586.173.231 2.44 3.723 5.91 5.222.827.357 1.471.571 1.973.73.828.263 1.582.226 2.178.137.664-.099 2.046-.836 2.336-1.644.289-.808.289-1.5.202-1.644-.087-.144-.317-.231-.664-.404z"/>
</svg>
